<svg width="500" height="500" viewBox="0 0 500 500" fill="none" xmlns="http://www.w3.org/2000/svg">
<path d="M400 0C455.228 0 500 44.7715 500 100V400C500 455.228 455.228 500 400 500H100C44.7715 500 8.0543e-07 455.228 0 400V100C0 44.7715 44.7715 8.05332e-07 100 0H400ZM130 50C85.8172 50 50 85.8172 50 130V370C50 414.183 85.8172 450 130 450H370C414.183 450 450 414.183 450 370V130C450 85.8172 414.183 50 370 50H130ZM370 270C397.614 270 420 292.386 420 320V370C420 397.614 397.614 420 370 420H320C301.493 420 285.336 409.945 276.69 395C274.036 390.411 272.088 385.362 271 380H342.5C352.165 380 360 372.165 360 362.5C360 333.505 336.495 310 307.5 310H271C272.088 304.638 274.036 299.589 276.69 295C285.336 280.055 301.493 270 320 270H370ZM271 310C270.344 313.231 270 316.575 270 320V370C270 373.425 270.344 376.769 271 380H157.5C147.835 380 140 372.165 140 362.5C140 333.505 163.505 310 192.5 310H271ZM250 275C249.56 275 249.121 274.995 248.684 274.987C249.121 274.995 249.56 275 250 275ZM248.425 274.982C248 274.974 247.576 274.962 247.153 274.946C247.576 274.962 248 274.974 248.425 274.982ZM247.123 274.945C246.7 274.929 246.278 274.909 245.856 274.886C246.278 274.909 246.7 274.929 247.123 274.945ZM245.535 274.867C245.12 274.843 244.706 274.816 244.293 274.785C244.706 274.816 245.12 274.843 245.535 274.867ZM244.264 274.783C243.848 274.752 243.433 274.716 243.02 274.678C243.433 274.716 243.848 274.752 244.264 274.783ZM242.663 274.644C242.328 274.611 241.994 274.577 241.661 274.54C241.994 274.577 242.328 274.611 242.663 274.644ZM241.422 274.514C241.026 274.469 240.632 274.42 240.238 274.369C240.632 274.42 241.026 274.469 241.422 274.514ZM239.866 274.319C239.515 274.272 239.164 274.222 238.814 274.17C239.164 274.222 239.515 274.272 239.866 274.319ZM238.646 274.146C238.236 274.083 237.826 274.017 237.418 273.948C237.826 274.017 238.236 274.083 238.646 274.146ZM237.122 273.896C236.767 273.835 236.412 273.772 236.059 273.705C236.412 273.772 236.767 273.835 237.122 273.896ZM235.902 273.676C235.483 273.596 235.065 273.512 234.648 273.426C235.065 273.512 235.483 273.596 235.902 273.676ZM234.445 273.383C234.102 273.31 233.76 273.236 233.419 273.159C233.76 273.236 234.102 273.31 234.445 273.383ZM233.139 273.096C232.754 273.007 232.37 272.916 231.987 272.821C232.37 272.916 232.754 273.007 233.139 273.096ZM231.699 272.749C231.384 272.67 231.069 272.589 230.755 272.506C231.069 272.589 231.384 272.67 231.699 272.749ZM230.447 272.425C230.062 272.321 229.678 272.214 229.295 272.104C229.678 272.214 230.062 272.321 230.447 272.425ZM229.059 272.036C228.735 271.942 228.413 271.846 228.092 271.748C228.413 271.846 228.735 271.942 229.059 272.036ZM227.82 271.665C227.44 271.548 227.061 271.427 226.684 271.304C227.061 271.427 227.44 271.548 227.82 271.665ZM226.457 271.229C226.098 271.11 225.739 270.989 225.382 270.865C225.739 270.989 226.098 271.11 226.457 271.229ZM225.265 270.824C224.865 270.685 224.467 270.542 224.07 270.396C224.467 270.542 224.865 270.685 225.265 270.824ZM223.918 270.339C223.584 270.215 223.25 270.089 222.918 269.96C223.25 270.089 223.584 270.215 223.918 270.339ZM222.648 269.855C222.273 269.708 221.9 269.558 221.527 269.405C221.9 269.558 222.273 269.708 222.648 269.855ZM221.403 269.354C221.06 269.212 220.718 269.068 220.377 268.921C220.718 269.068 221.06 269.212 221.403 269.354ZM220.141 268.819C219.779 268.662 219.418 268.503 219.06 268.34C219.418 268.503 219.779 268.662 220.141 268.819ZM218.833 268.235C218.53 268.097 218.227 267.956 217.926 267.813C218.227 267.956 218.53 268.097 218.833 268.235ZM217.684 267.699C217.327 267.529 216.972 267.355 216.618 267.179C216.972 267.355 217.327 267.529 217.684 267.699ZM216.372 267.055C216.106 266.921 215.841 266.785 215.576 266.648C215.841 266.785 216.106 266.921 216.372 267.055ZM214.13 265.881C213.794 265.697 213.459 265.512 213.126 265.323C213.459 265.512 213.794 265.697 214.13 265.881ZM211.651 264.467C211.397 264.315 211.145 264.162 210.893 264.008C211.145 264.162 211.397 264.315 211.651 264.467ZM209.543 263.163C209.866 263.37 210.191 263.575 210.518 263.777C210.202 263.582 209.888 263.385 209.576 263.185L209.543 263.163ZM209.524 263.151C209.202 262.944 208.882 262.734 208.563 262.522C208.882 262.734 209.202 262.944 209.524 263.151ZM208.292 262.342C207.999 262.146 207.709 261.947 207.419 261.747C207.709 261.947 207.999 262.146 208.292 262.342ZM207.322 261.682C207.354 261.704 207.387 261.725 207.419 261.747C207.383 261.723 207.347 261.699 207.312 261.675L207.322 261.682ZM207.173 261.577C206.906 261.391 206.64 261.203 206.376 261.014C206.64 261.203 206.906 261.391 207.173 261.577ZM204.23 259.418C204.83 259.88 205.436 260.335 206.05 260.779C205.436 260.335 204.83 259.88 204.23 259.418ZM224.552 254.351C224.204 254.187 223.858 254.021 223.514 253.852C222.97 253.584 222.432 253.307 221.897 253.023C221.879 253.014 221.86 253.004 221.842 252.994C221.236 252.671 220.636 252.339 220.042 251.996C220.034 251.991 220.026 251.987 220.018 251.982C219.962 251.95 219.907 251.918 219.852 251.886C219.648 251.767 219.445 251.647 219.243 251.526C218.647 251.169 218.057 250.803 217.474 250.426C217.465 250.42 217.455 250.414 217.446 250.408C216.873 250.037 216.307 249.657 215.748 249.268C215.74 249.262 215.732 249.257 215.724 249.251C215.688 249.226 215.652 249.201 215.616 249.176C215.394 249.02 215.174 248.863 214.954 248.705C214.896 248.663 214.837 248.621 214.779 248.579C214.219 248.172 213.665 247.755 213.119 247.329C212.64 246.955 212.167 246.574 211.699 246.186C211.692 246.179 211.683 246.173 211.676 246.167C211.447 245.977 211.221 245.785 210.995 245.592C210.933 245.539 210.87 245.486 210.809 245.433C210.576 245.232 210.345 245.029 210.116 244.825C209.901 244.634 209.688 244.441 209.476 244.246C209.185 243.98 208.896 243.711 208.61 243.438L208.604 243.432C208.107 242.958 207.618 242.476 207.138 241.985C206.932 241.776 206.729 241.564 206.526 241.352C206.453 241.275 206.38 241.197 206.308 241.12C205.898 240.685 205.495 240.245 205.099 239.798C204.898 239.572 204.7 239.345 204.503 239.116C204 238.531 203.508 237.936 203.027 237.332C202.88 237.147 202.733 236.961 202.588 236.773C202.529 236.697 202.469 236.621 202.41 236.544C202.243 236.327 202.076 236.108 201.912 235.889C201.733 235.649 201.556 235.408 201.381 235.166C201.323 235.087 201.266 235.007 201.209 234.927C200.804 234.363 200.41 233.791 200.024 233.213C199.464 232.371 198.924 231.515 198.405 230.644C198.28 230.434 198.157 230.223 198.034 230.012C198.004 229.959 197.974 229.907 197.943 229.854C197.753 229.524 197.567 229.19 197.383 228.855C197.235 228.586 197.088 228.316 196.944 228.044L196.564 227.315L196.563 227.313C196.504 227.198 196.446 227.082 196.388 226.966C196.429 227.047 196.469 227.128 196.51 227.209V227.208C196.52 227.228 196.53 227.248 196.54 227.269C196.53 227.249 196.52 227.229 196.51 227.209C191.709 228.888 186.575 229.854 181.233 229.983C181.021 229.497 180.815 229.008 180.612 228.517C180.815 229.008 181.021 229.498 181.233 229.984C180.823 229.994 180.412 230 180 230H130C102.386 230 80 207.614 80 180V130C80 102.386 102.386 80 130 80H180C206.847 80 228.75 101.16 229.946 127.712C229.98 128.47 230 129.233 230 130V143.414C231.175 142.999 232.367 142.619 233.574 142.276C233.938 142.173 234.303 142.073 234.67 141.977C235.145 141.851 235.622 141.732 236.102 141.618C236.829 141.446 237.561 141.286 238.299 141.141C242.083 140.392 245.996 140 250 140C283.137 140 310 166.863 310 200C310 233.137 283.137 260 250 260C249.595 260 249.19 259.994 248.787 259.986C248.479 259.98 248.171 259.972 247.863 259.961C247.843 259.96 247.824 259.961 247.804 259.96C247.798 259.96 247.793 259.959 247.787 259.959C247.466 259.947 247.145 259.933 246.825 259.916C246.812 259.915 246.8 259.915 246.787 259.914C246.73 259.911 246.673 259.907 246.616 259.904C246.351 259.89 246.086 259.874 245.821 259.855C245.741 259.85 245.661 259.844 245.581 259.838C245.253 259.814 244.925 259.789 244.598 259.76C244.582 259.758 244.566 259.756 244.551 259.755C244.232 259.726 243.915 259.695 243.598 259.661C243.54 259.655 243.482 259.648 243.424 259.642C242.775 259.571 242.13 259.491 241.488 259.399C241.411 259.388 241.334 259.377 241.257 259.366C240.924 259.318 240.592 259.267 240.261 259.213C239.952 259.163 239.645 259.11 239.338 259.055C239.334 259.054 239.33 259.053 239.326 259.053C239.014 258.997 238.703 258.938 238.393 258.877C238.382 258.875 238.372 258.873 238.362 258.871C238.308 258.86 238.254 258.85 238.199 258.839C237.879 258.775 237.56 258.709 237.242 258.641C236.883 258.563 236.526 258.481 236.17 258.396C235.879 258.328 235.589 258.257 235.3 258.185C234.95 258.096 234.601 258.006 234.254 257.912C234.249 257.911 234.244 257.91 234.239 257.908C234.182 257.893 234.125 257.876 234.068 257.86C233.808 257.789 233.549 257.716 233.29 257.641C232.621 257.447 231.956 257.242 231.297 257.026C231.289 257.024 231.281 257.021 231.272 257.019C231.215 257 231.158 256.98 231.101 256.961C230.852 256.878 230.603 256.795 230.355 256.709C230.299 256.69 230.243 256.67 230.188 256.65C230.176 256.647 230.165 256.643 230.154 256.639C229.842 256.529 229.53 256.417 229.22 256.303C228.953 256.204 228.686 256.103 228.421 256.001C228.335 255.968 228.249 255.935 228.163 255.901C227.9 255.799 227.638 255.694 227.377 255.588C227.319 255.564 227.261 255.54 227.203 255.517C226.876 255.382 226.551 255.244 226.228 255.104C225.665 254.861 225.106 254.61 224.552 254.351ZM247.911 259.963C248.197 259.973 248.483 259.981 248.77 259.986C248.483 259.981 248.197 259.973 247.911 259.963ZM245.854 259.857C246.075 259.873 246.297 259.886 246.52 259.898C246.297 259.886 246.075 259.873 245.854 259.857ZM243.626 259.664C243.924 259.696 244.223 259.726 244.522 259.753C244.223 259.726 243.924 259.696 243.626 259.664ZM242.702 259.559C242.929 259.586 243.156 259.613 243.384 259.638C243.156 259.613 242.929 259.586 242.702 259.559ZM240.539 259.257C240.759 259.292 240.979 259.325 241.199 259.357C240.979 259.325 240.759 259.292 240.539 259.257ZM203.898 259.16C203.672 258.984 203.447 258.806 203.223 258.627C203.447 258.806 203.672 258.984 203.898 259.16ZM237.251 258.643C237.549 258.707 237.849 258.768 238.148 258.828C237.849 258.768 237.549 258.707 237.251 258.643ZM202.807 258.292C202.945 258.404 203.084 258.516 203.223 258.627C203.084 258.516 202.945 258.404 202.807 258.292ZM235.325 258.191C235.598 258.26 235.872 258.327 236.146 258.392C235.872 258.327 235.598 258.26 235.325 258.191ZM202.807 258.292C202.579 258.108 202.352 257.922 202.127 257.735C202.352 257.922 202.579 258.108 202.807 258.292ZM233.352 257.658C233.562 257.719 233.773 257.778 233.984 257.837C233.773 257.778 233.562 257.719 233.352 257.658ZM201.845 257.5C201.572 257.271 201.301 257.041 201.032 256.809C201.301 257.041 201.572 257.271 201.845 257.5ZM230.355 256.709C230.596 256.792 230.837 256.874 231.078 256.954C230.837 256.874 230.596 256.792 230.355 256.709ZM200.946 256.735C200.646 256.476 200.349 256.213 200.053 255.949C200.349 256.213 200.646 256.476 200.946 256.735ZM228.462 256.017C228.698 256.108 228.935 256.197 229.173 256.285C228.935 256.197 228.698 256.108 228.462 256.017ZM227.458 255.62C227.683 255.711 227.908 255.801 228.134 255.89C227.908 255.801 227.683 255.711 227.458 255.62ZM199.826 255.745C199.567 255.512 199.309 255.277 199.053 255.04C199.309 255.277 199.567 255.512 199.826 255.745ZM198.955 254.949C198.673 254.687 198.393 254.422 198.115 254.155C198.393 254.422 198.673 254.687 198.955 254.949ZM197.833 253.883C197.621 253.678 197.41 253.472 197.201 253.265C197.41 253.472 197.621 253.678 197.833 253.883ZM197.01 253.076C196.757 252.823 196.506 252.568 196.257 252.312C196.506 252.568 196.757 252.823 197.01 253.076ZM195.906 251.949C195.733 251.769 195.561 251.587 195.39 251.405C195.561 251.587 195.733 251.769 195.906 251.949ZM219.305 251.562C219.466 251.659 219.628 251.755 219.791 251.85C219.628 251.755 219.466 251.659 219.305 251.562ZM195.13 251.131C194.869 250.851 194.611 250.569 194.354 250.285C194.611 250.569 194.869 250.851 195.13 251.131ZM194.185 250.097C193.961 249.848 193.74 249.597 193.52 249.345C193.74 249.597 193.961 249.848 194.185 250.097ZM193.348 249.148C193.09 248.852 192.836 248.554 192.583 248.254C192.836 248.554 193.09 248.852 193.348 249.148ZM214.954 248.705C215.16 248.853 215.367 249 215.574 249.146C215.367 249 215.16 248.853 214.954 248.705ZM192.435 248.077C192.238 247.842 192.043 247.604 191.849 247.366C192.043 247.604 192.238 247.842 192.435 248.077ZM191.591 247.05C191.367 246.772 191.146 246.493 190.926 246.213C191.146 246.493 191.367 246.772 191.591 247.05ZM190.635 245.837C190.483 245.641 190.332 245.444 190.182 245.246C190.332 245.444 190.483 245.641 190.635 245.837ZM210.809 245.433C210.87 245.486 210.933 245.539 210.995 245.592C210.933 245.539 210.87 245.486 210.809 245.433ZM189.985 244.987C189.746 244.668 189.51 244.347 189.275 244.024C189.51 244.347 189.746 244.668 189.985 244.987ZM189.17 243.88C188.976 243.611 188.784 243.341 188.594 243.07C188.784 243.341 188.976 243.611 189.17 243.88ZM188.377 242.762C188.168 242.461 187.96 242.158 187.755 241.854C187.96 242.158 188.168 242.461 188.377 242.762ZM187.578 241.588C187.42 241.35 187.262 241.112 187.106 240.872C187.262 241.112 187.42 241.35 187.578 241.588ZM186.88 240.523C186.686 240.222 186.494 239.919 186.304 239.614C186.494 239.919 186.686 240.222 186.88 240.523ZM186.104 239.291C185.955 239.049 185.808 238.806 185.661 238.562C185.808 238.806 185.955 239.049 186.104 239.291ZM185.474 238.249C185.277 237.918 185.082 237.586 184.891 237.252C185.082 237.586 185.277 237.918 185.474 238.249ZM203.207 237.558C203.2 237.549 203.193 237.541 203.187 237.533C203.193 237.541 203.2 237.549 203.207 237.558ZM203.027 237.332C203.081 237.399 203.133 237.467 203.187 237.533C203.133 237.467 203.081 237.399 203.027 237.332ZM202.588 236.773C202.731 236.958 202.875 237.141 203.021 237.323C202.875 237.141 202.731 236.958 202.588 236.773ZM184.772 237.043C184.62 236.775 184.469 236.506 184.319 236.236C184.469 236.506 184.62 236.775 184.772 237.043ZM201.209 234.927C201.266 235.007 201.323 235.087 201.381 235.166C201.323 235.087 201.266 235.007 201.209 234.927ZM183.423 234.563C183.311 234.348 183.2 234.132 183.09 233.915C183.2 234.132 183.311 234.348 183.423 234.563ZM182.312 232.341C182.171 232.045 182.032 231.749 181.895 231.451C182.032 231.749 182.171 232.045 182.312 232.341ZM181.704 231.037C181.552 230.703 181.402 230.369 181.255 230.032C181.402 230.369 181.552 230.703 181.704 231.037ZM197.972 229.904C197.992 229.94 198.013 229.976 198.034 230.012C198.127 230.172 198.22 230.332 198.314 230.491L197.972 229.904ZM180.303 227.752C179.803 226.498 179.336 225.228 178.903 223.942C178.953 224.089 179.002 224.236 179.053 224.382C179.104 224.53 179.155 224.679 179.207 224.827C179.235 224.908 179.264 224.989 179.293 225.069C179.371 225.288 179.449 225.507 179.528 225.725C179.563 225.821 179.599 225.917 179.635 226.013C179.704 226.2 179.773 226.387 179.844 226.573C179.883 226.676 179.923 226.778 179.962 226.881C180.034 227.068 180.106 227.254 180.179 227.44C180.22 227.544 180.261 227.648 180.303 227.752ZM196.976 228.104C197 228.15 197.025 228.196 197.05 228.242C197.027 228.2 197.005 228.159 196.982 228.117L196.976 228.104ZM190.364 206.639C190.426 207.202 190.495 207.764 190.572 208.322C190.618 208.655 190.669 208.987 190.721 209.318C190.768 209.619 190.816 209.918 190.867 210.217C191.133 211.768 191.459 213.299 191.842 214.808C191.868 214.91 191.893 215.013 191.92 215.115L191.907 215.067C192.068 215.688 192.238 216.304 192.418 216.916C192.467 217.084 192.518 217.251 192.568 217.418C192.59 217.49 192.612 217.563 192.634 217.635C192.707 217.873 192.781 218.111 192.857 218.348L192.882 218.426C192.892 218.456 192.901 218.486 192.911 218.516C193.094 219.078 193.285 219.637 193.483 220.192C193.63 220.604 193.782 221.013 193.938 221.42C194.036 221.678 194.136 221.934 194.238 222.19C194.887 223.819 195.604 225.412 196.388 226.966C196.428 227.047 196.469 227.127 196.51 227.208C216.011 220.388 230 201.829 230 180V143.414C229.303 143.66 228.612 143.919 227.927 144.19C227.833 144.227 227.741 144.265 227.647 144.303C226.34 144.828 225.055 145.398 223.795 146.011C222.74 146.524 221.703 147.066 220.684 147.638C220.604 147.682 220.524 147.727 220.444 147.772C220.218 147.901 219.994 148.03 219.77 148.161C219.69 148.208 219.61 148.255 219.53 148.302C219.178 148.51 218.829 148.721 218.481 148.936C217.932 149.276 217.388 149.624 216.851 149.981C216.508 150.209 216.168 150.44 215.83 150.674C214.508 151.591 213.226 152.56 211.984 153.578C211.506 153.97 211.033 154.37 210.567 154.776C209.369 155.822 208.212 156.915 207.101 158.052L207.103 158.05C207.097 158.055 207.092 158.061 207.087 158.066C206.873 158.285 206.661 158.505 206.451 158.727C205.937 159.269 205.434 159.821 204.94 160.382C204.908 160.418 204.876 160.454 204.844 160.49C204.876 160.454 204.908 160.418 204.94 160.382C204.085 161.354 203.26 162.353 202.469 163.379C201.573 164.54 200.719 165.735 199.908 166.961C199.897 166.978 199.885 166.995 199.874 167.012C199.515 167.557 199.164 168.109 198.822 168.666C198.427 169.31 198.043 169.962 197.672 170.622C197.62 170.714 197.568 170.807 197.517 170.899C196.783 172.219 196.099 173.57 195.465 174.948C195.313 175.279 195.163 175.611 195.017 175.945C194.86 176.303 194.707 176.664 194.557 177.025C194.306 177.63 194.064 178.239 193.833 178.853C193.676 179.27 193.523 179.69 193.375 180.111C193.123 180.829 192.884 181.553 192.659 182.282C192.629 182.379 192.601 182.476 192.571 182.573C192.476 182.888 192.382 183.204 192.292 183.521H192.291C192.29 183.526 192.288 183.531 192.287 183.536C192.176 183.927 192.068 184.32 191.965 184.715C191.68 185.798 191.425 186.894 191.2 188C191.117 188.411 191.039 188.824 190.964 189.238H190.963C190.961 189.251 190.958 189.264 190.956 189.277C190.874 189.735 190.796 190.194 190.724 190.655C190.49 192.147 190.313 193.657 190.191 195.184C190.154 195.65 190.123 196.118 190.097 196.588C190.099 196.549 190.1 196.509 190.103 196.47C190.1 196.509 190.099 196.549 190.097 196.588C190.033 197.717 190 198.855 190 200C190 200.561 190.008 201.12 190.023 201.677C190.026 201.773 190.029 201.87 190.032 201.966C190.039 202.169 190.046 202.372 190.055 202.575C190.059 202.676 190.064 202.776 190.068 202.877C190.083 203.184 190.099 203.49 190.118 203.795C190.178 204.749 190.261 205.697 190.364 206.639ZM195.996 226.174C196.048 226.282 196.1 226.39 196.153 226.497C196.1 226.39 196.048 226.282 195.996 226.174ZM195.705 225.566C195.74 225.64 195.775 225.714 195.81 225.787C195.775 225.714 195.74 225.64 195.705 225.566ZM178.437 222.505C178.397 222.378 178.357 222.251 178.317 222.123C178.357 222.251 178.397 222.378 178.437 222.505ZM194.238 222.19C194.293 222.327 194.347 222.464 194.402 222.6C194.347 222.464 194.293 222.327 194.238 222.19ZM177.914 220.771C177.272 218.541 176.732 216.267 176.297 213.956C176.326 214.11 176.355 214.264 176.385 214.418C176.41 214.548 176.436 214.678 176.462 214.808C176.499 214.991 176.536 215.173 176.574 215.355C176.598 215.471 176.623 215.586 176.647 215.701C176.682 215.865 176.718 216.03 176.754 216.193C176.795 216.38 176.836 216.566 176.879 216.752C176.908 216.88 176.938 217.008 176.968 217.136C177.003 217.289 177.04 217.441 177.076 217.594C177.108 217.727 177.14 217.86 177.173 217.992C177.221 218.189 177.27 218.386 177.32 218.582C177.344 218.674 177.368 218.766 177.392 218.857C177.443 219.055 177.494 219.252 177.547 219.448C177.584 219.588 177.622 219.728 177.66 219.868C177.707 220.037 177.753 220.206 177.801 220.375C177.838 220.507 177.876 220.639 177.914 220.771ZM193.692 220.769C193.734 220.882 193.777 220.995 193.819 221.108C193.777 220.995 193.734 220.882 193.692 220.769ZM192.307 216.532C192.343 216.66 192.38 216.788 192.418 216.916C192.38 216.788 192.343 216.66 192.307 216.532ZM191.454 213.184C191.473 213.27 191.492 213.356 191.512 213.442C191.492 213.356 191.473 213.27 191.454 213.184ZM176.037 212.497C176.013 212.35 175.989 212.204 175.965 212.057C175.989 212.204 176.013 212.35 176.037 212.497ZM191.273 212.351C191.288 212.422 191.303 212.493 191.318 212.564C191.303 212.493 191.288 212.422 191.273 212.351ZM175.747 210.621C175.728 210.486 175.709 210.352 175.69 210.217C175.709 210.352 175.728 210.486 175.747 210.621ZM175.305 206.804C175.291 206.651 175.278 206.497 175.266 206.344C175.278 206.497 175.291 206.651 175.305 206.804ZM175 200C175 201.315 175.034 202.622 175.101 203.92C175.034 202.622 175 201.315 175 200ZM175.048 197.316C175.052 197.199 175.056 197.081 175.061 196.963C175.056 197.081 175.052 197.199 175.048 197.316ZM175.287 193.396C175.296 193.295 175.305 193.194 175.314 193.094C175.305 193.194 175.296 193.295 175.287 193.396C175.211 194.271 175.15 195.152 175.104 196.036C175.15 195.152 175.211 194.271 175.287 193.396ZM190.191 195.177C190.191 195.179 190.192 195.181 190.191 195.184C190.192 195.181 190.191 195.179 190.191 195.177ZM175.493 191.35C175.459 191.651 175.427 191.953 175.396 192.256C175.427 191.953 175.459 191.651 175.493 191.35ZM176.178 186.688C176.131 186.952 176.085 187.215 176.041 187.479C176.018 187.619 175.994 187.758 175.972 187.897C175.994 187.758 176.018 187.619 176.041 187.479C176.085 187.215 176.131 186.952 176.178 186.688ZM178.883 176.118C178.536 177.152 178.211 178.196 177.908 179.249C177.871 179.38 177.833 179.511 177.796 179.643C177.833 179.511 177.871 179.38 177.908 179.249C178.143 178.433 178.39 177.623 178.651 176.819L178.883 176.118ZM179.055 175.612C179.002 175.766 178.949 175.919 178.897 176.073C178.949 175.919 179.002 175.766 179.055 175.612ZM195.104 175.747C195.075 175.813 195.046 175.879 195.017 175.945C195.046 175.879 195.075 175.813 195.104 175.747ZM179.171 175.274C179.22 175.133 179.271 174.992 179.321 174.852C179.271 174.992 179.22 175.133 179.171 175.274ZM180.326 172.188C180.247 172.388 180.169 172.587 180.091 172.787C180.169 172.587 180.247 172.388 180.326 172.188ZM180.799 171.034C180.859 170.892 180.918 170.749 180.979 170.607C180.918 170.749 180.859 170.892 180.799 171.034ZM182.717 166.827C182.774 166.712 182.831 166.597 182.889 166.482C182.831 166.597 182.774 166.712 182.717 166.827ZM183.651 164.998C184.234 163.896 184.844 162.811 185.479 161.742C185.75 161.286 186.026 160.832 186.307 160.382C186.366 160.286 186.426 160.19 186.486 160.095C186.426 160.19 186.366 160.286 186.307 160.382C186.026 160.832 185.75 161.286 185.479 161.742C185.404 161.868 185.33 161.993 185.256 162.119C185.203 162.21 185.15 162.301 185.097 162.393C185.01 162.541 184.924 162.69 184.839 162.84C184.78 162.942 184.722 163.045 184.664 163.147C184.318 163.759 183.98 164.376 183.651 164.998ZM206.194 159C206.28 158.909 206.365 158.817 206.451 158.727C206.365 158.817 206.28 158.909 206.194 159ZM187.936 157.88C188.483 157.075 189.046 156.281 189.623 155.499C189.046 156.281 188.483 157.075 187.936 157.88ZM190.555 154.265C190.277 154.625 190.002 154.988 189.73 155.354C190.002 154.988 190.277 154.625 190.555 154.265ZM191.455 153.118C191.183 153.457 190.915 153.799 190.649 154.143C190.915 153.799 191.183 153.457 191.455 153.118ZM192.464 151.887C193.405 150.763 194.378 149.668 195.382 148.602C194.378 149.668 193.405 150.763 192.464 151.887ZM219.53 148.302C219.61 148.255 219.69 148.208 219.77 148.161C219.69 148.208 219.61 148.255 219.53 148.302ZM197.53 146.41C197.872 146.076 198.217 145.745 198.564 145.417C198.217 145.745 197.872 146.076 197.53 146.41ZM205.507 139.618C204.755 140.173 204.013 140.742 203.283 141.324C203.218 141.376 203.154 141.428 203.089 141.479C201.573 142.696 200.106 143.97 198.69 145.299C200.847 143.275 203.123 141.378 205.507 139.618ZM208.459 137.546C207.481 138.198 206.519 138.872 205.574 139.568C206.519 138.872 207.481 138.198 208.459 137.546ZM209.099 137.125C208.955 137.218 208.812 137.312 208.669 137.406C208.812 137.312 208.955 137.218 209.099 137.125ZM209.818 136.661C209.661 136.761 209.504 136.862 209.348 136.963C209.504 136.862 209.661 136.761 209.818 136.661ZM214.383 133.98C212.879 134.793 211.407 135.657 209.967 136.567C211.407 135.657 212.879 134.793 214.383 133.98ZM217 132.632C216.818 132.721 216.637 132.811 216.456 132.901C216.637 132.811 216.818 132.721 217 132.632ZM217.741 132.273C217.564 132.358 217.387 132.443 217.21 132.529C217.387 132.443 217.564 132.358 217.741 132.273ZM218.444 131.942C218.274 132.021 218.105 132.101 217.936 132.181C218.105 132.101 218.274 132.021 218.444 131.942ZM223.95 129.647C222.158 130.311 220.398 131.042 218.674 131.836C220.398 131.042 222.158 130.311 223.95 129.647ZM225.479 129.101C225.264 129.175 225.05 129.249 224.837 129.325C225.05 129.249 225.264 129.175 225.479 129.101ZM226.245 128.841C226.031 128.912 225.818 128.984 225.604 129.058C225.818 128.984 226.031 128.912 226.245 128.841ZM227.727 128.362C228.163 128.227 228.601 128.096 229.041 127.969C228.601 128.096 228.163 128.227 227.727 128.362ZM229.876 127.731C229.666 127.79 229.456 127.848 229.247 127.908C229.456 127.848 229.666 127.79 229.876 127.731ZM232.295 127.103C231.52 127.29 230.75 127.49 229.984 127.701C230.75 127.49 231.52 127.29 232.295 127.103ZM232.504 127.053C232.823 126.976 233.144 126.902 233.465 126.83C233.144 126.902 232.823 126.976 232.504 127.053ZM235.984 126.308C235.203 126.455 234.426 126.616 233.653 126.788C234.426 126.616 235.203 126.455 235.984 126.308ZM236.144 126.278C236.47 126.217 236.796 126.159 237.124 126.103C236.797 126.159 236.47 126.217 236.144 126.278ZM239.715 125.7C238.924 125.809 238.138 125.929 237.355 126.062C238.138 125.929 238.924 125.809 239.715 125.7ZM239.865 125.68C240.195 125.635 240.525 125.593 240.855 125.553C240.525 125.593 240.195 125.635 239.865 125.68ZM241.145 125.518C241.518 125.474 241.892 125.433 242.267 125.395C241.892 125.433 241.518 125.474 241.145 125.518ZM243.683 125.263C243.984 125.238 244.286 125.215 244.588 125.193C244.286 125.215 243.984 125.238 243.683 125.263ZM245.017 125.163C245.328 125.143 245.64 125.124 245.953 125.107C245.64 125.124 245.328 125.143 245.017 125.163ZM246.147 125.097C246.083 125.1 246.018 125.104 245.953 125.107C246.018 125.104 246.083 125.1 246.147 125.097ZM246.147 125.097C246.531 125.077 246.916 125.061 247.302 125.048C246.916 125.061 246.531 125.077 246.147 125.097ZM247.604 125.038C247.894 125.029 248.184 125.021 248.474 125.016C248.184 125.021 247.894 125.029 247.604 125.038ZM248.833 125.009C249.221 125.003 249.61 125 250 125C249.61 125 249.221 125.003 248.833 125.009ZM240.496 259.25C240.51 259.252 240.525 259.255 240.539 259.257C240.525 259.255 240.51 259.252 240.496 259.25ZM224.546 254.348C224.548 254.349 224.55 254.35 224.552 254.351C224.55 254.35 224.548 254.349 224.546 254.348ZM220.427 147.783C220.433 147.78 220.438 147.776 220.444 147.772C220.438 147.776 220.433 147.78 220.427 147.783ZM216.851 149.981C216.873 149.967 216.895 149.951 216.918 149.937C216.895 149.951 216.873 149.967 216.851 149.981ZM192.659 182.282C192.634 182.364 192.609 182.445 192.584 182.526C192.609 182.445 192.634 182.364 192.659 182.282ZM190.016 198.608C190.016 198.589 190.016 198.569 190.017 198.55C190.016 198.569 190.016 198.589 190.016 198.608ZM190.32 206.237C190.333 206.363 190.348 206.488 190.361 206.613C190.348 206.488 190.333 206.363 190.32 206.237ZM175.602 190.459C175.564 190.755 175.527 191.052 175.493 191.35C175.527 191.052 175.564 190.755 175.602 190.459ZM176.321 185.91C176.272 186.169 176.224 186.429 176.178 186.688C176.224 186.429 176.272 186.169 176.321 185.91ZM176.354 185.741C176.401 185.497 176.449 185.253 176.498 185.01C176.449 185.253 176.401 185.497 176.354 185.741ZM177.106 182.279C177.118 182.233 177.128 182.186 177.14 182.14C177.128 182.186 177.118 182.233 177.106 182.279ZM177.361 181.256L177.552 180.532C177.487 180.774 177.422 181.017 177.359 181.26C177.36 181.258 177.361 181.257 177.361 181.256ZM177.359 181.26C177.318 181.419 177.279 181.579 177.239 181.738C177.279 181.579 177.318 181.419 177.359 181.26ZM182.006 168.307L181.989 168.342C181.924 168.483 181.859 168.624 181.794 168.766C181.864 168.612 181.935 168.459 182.006 168.307ZM187.936 157.88C187.833 158.031 187.731 158.183 187.629 158.335C187.731 158.183 187.833 158.031 187.936 157.88ZM192.464 151.887C192.158 152.252 191.856 152.62 191.558 152.991C191.856 152.62 192.158 152.252 192.464 151.887ZM197.53 146.41C197.216 146.718 196.905 147.029 196.596 147.343C196.905 147.029 197.216 146.718 197.53 146.41Z" fill="black"/>
</svg>
