<svg xmlns="http://www.w3.org/2000/svg" xmlns:xlink="http://www.w3.org/1999/xlink" style="display:none">
  <!-- Search Icon -->
  <symbol id="search" viewBox="0 0 24 24">
    <path fill="currentColor" d="M14.843 16.368a8 8 0 1 1 1.428-1.4l4.427 4.316a1 1 0 1 1-1.396 1.432zM16 10a6 6 0 1 0-12 0a6 6 0 0 0 12 0"/>
  </symbol>
  <!-- Laptop/Phone Icon -->
  <symbol id="laptop-phone" viewBox="0 0 24 24">
    <path fill="currentColor" d="M8.254 8.003c.967 0 1.75.783 1.75 1.75v9.5a1.75 1.75 0 0 1-1.75 1.75H3.75A1.75 1.75 0 0 1 2 19.253v-9.5c0-.967.784-1.75 1.75-1.75zm-2.002 9.495h-.5a.75.75 0 1 0 0 1.5h.5a.75.75 0 0 0 0-1.5M21.25 16.5a.75.75 0 0 1 .102 1.493L21.25 18L11 17.999v-1.5zm-3-11.5c.966 0 1.75.784 1.75 1.75v7.5A1.75 1.75 0 0 1 18.25 16H11V9a2 2 0 0 0-1.85-1.995L9 7l-5-.001V6.75C4 5.784 4.784 5 5.75 5z"/>
  </symbol>
  <!-- BookMarck Icon -->
  <symbol id="bookmark" viewBox="0 0 24 24">
    <path fill="currentColor" d="M6.19 21.855a.75.75 0 0 1-1.187-.61V6.25A3.25 3.25 0 0 1 8.253 3h7.498a3.25 3.25 0 0 1 3.25 3.25v14.996a.75.75 0 0 1-1.188.609l-5.81-4.181z"/>
  </symbol>
  <!-- BookMarck Add Icon -->
  <symbol id="addbm" viewBox="0 0 24 24">
    <path fill="currentColor" d="M23 6.5a5.5 5.5 0 1 0-11 0a5.5 5.5 0 0 0 11 0M18 7v2.504a.5.5 0 1 1-1 0V7h-2.505a.5.5 0 0 1 0-1H17V3.5a.5.5 0 0 1 1 0V6h2.496a.5.5 0 0 1 0 1zm-.5 6c.516 0 1.019-.06 1.5-.174v8.42a.75.75 0 0 1-1.188.608l-5.81-4.181l-5.812 4.18a.75.75 0 0 1-1.188-.608V6.25A3.25 3.25 0 0 1 8.252 3h3.77A6.5 6.5 0 0 0 17.5 13"/>
  </symbol>
  <!-- BookMarck Remove Icon -->
  <symbol id="removebm" viewBox="0 0 24 24"><path fill="currentColor" d="M3.28 2.22a.75.75 0 1 0-1.06 1.06l2.788 2.788a3 3 0 0 0-.005.181v14.996a.75.75 0 0 0 1.188.609L12 17.673l5.812 4.18A.75.75 0 0 0 19 21.246v-1.183l1.718 1.718a.75.75 0 0 0 1.061-1.06zm15.721 4.03v9.57L6.621 3.437A3.25 3.25 0 0 1 8.252 3h7.498A3.25 3.25 0 0 1 19 6.25"/>
  </symbol>
  <!-- Car Icon -->
  <symbol id="car" viewBox="0 0 24 24">
    <path fill="currentColor" d="M6 2a1 1 0 0 1 .993.883L7 3v1.068l13.071.935A1 1 0 0 1 21 6.027l-.01.114l-1 7a1 1 0 0 1-.877.853L19 14H7v2h10a3 3 0 1 1-2.995 3.176L14 19l.005-.176q.027-.433.166-.824H8.829a3 3 0 1 1-5.824 1.176L3 19l.005-.176A3 3 0 0 1 5 16.17V4H4a1 1 0 0 1-.993-.883L3 3a1 1 0 0 1 .883-.993L4 2zm0 16a1 1 0 1 0 0 2a1 1 0 0 0 0-2m11 0a1 1 0 1 0 0 2a1 1 0 0 0 0-2"/>
  </symbol>
  <!-- Close Icon -->
  <symbol id="close" fill="none" viewBox="0 0 24 24" strokeWidth="1.5" stroke="currentColor" >
    <path fill="currentColor" d="m4.21 4.387l.083-.094a1 1 0 0 1 1.32-.083l.094.083L12 10.585l6.293-6.292a1 1 0 1 1 1.414 1.414L13.415 12l6.292 6.293a1 1 0 0 1 .083 1.32l-.083.094a1 1 0 0 1-1.32.083l-.094-.083L12 13.415l-6.293 6.292a1 1 0 0 1-1.414-1.414L10.585 12L4.293 5.707a1 1 0 0 1-.083-1.32l.083-.094z"/>
  </symbol>
  <!-- check Icon -->
  <symbol id="check" viewBox="0 0 24 24">
    <path fill="currentColor" d="m8.5 16.586l-3.793-3.793a1 1 0 0 0-1.414 1.414l4.5 4.5a1 1 0 0 0 1.414 0l11-11a1 1 0 0 0-1.414-1.414z"/>
  </symbol>
  <!-- Invoice Icon -->
  <symbol id="invoice" viewBox="0 0 24 24">
    <g fill="currentColor">
      <path d="m12 2l.117.007a1 1 0 0 1 .876.876L13 3v4l.005.15a2 2 0 0 0 1.838 1.844L15 9h4l.117.007a1 1 0 0 1 .876.876L20 10v9a3 3 0 0 1-2.824 2.995L17 22H7a3 3 0 0 1-2.995-2.824L4 19V5a3 3 0 0 1 2.824-2.995L7 2zm4 15h-2a1 1 0 0 0 0 2h2a1 1 0 0 0 0-2m0-4H8a1 1 0 0 0 0 2h8a1 1 0 0 0 0-2M9 6H8a1 1 0 1 0 0 2h1a1 1 0 1 0 0-2"/>
      <path d="M19 7h-4l-.001-4.001z"/>
    </g>
  </symbol>
  <!-- Arrow Left Icon -->
  <symbol id="arrowl" viewBox="0 0 24 24">
    <g fill="none" fill-rule="evenodd">
      <path d="M24 0v24H0V0zM12.594 23.258l-.012.002l-.071.035l-.02.004l-.014-.004l-.071-.036q-.016-.004-.024.006l-.004.01l-.017.428l.005.02l.01.013l.104.074l.015.004l.012-.004l.104-.074l.012-.016l.004-.017l-.017-.427q-.004-.016-.016-.018m.264-.113l-.014.002l-.184.093l-.01.01l-.003.011l.018.43l.005.012l.008.008l.201.092q.019.005.029-.008l.004-.014l-.034-.614q-.005-.018-.02-.022m-.715.002a.02.02 0 0 0-.027.006l-.006.014l-.034.614q.001.018.017.024l.015-.002l.201-.093l.01-.008l.003-.011l.018-.43l-.003-.012l-.01-.01z"/><path fill="currentColor" d="M9.098 4.488C10.168 3.417 12 4.175 12 5.69V8h8a2 2 0 0 1 2 2v4a2 2 0 0 1-2 2h-8v2.31c0 1.515-1.831 2.273-2.902 1.202l-6.453-6.451a1.5 1.5 0 0 1 0-2.122z"/>
    </g>
  </symbol>
  <!-- Arrow Right Icon -->
  <symbol id="arrowr" viewBox="0 0 24 24">
    <g fill="none" fill-rule="evenodd">
      <path d="M24 0v24H0V0zM12.594 23.258l-.012.002l-.071.035l-.02.004l-.014-.004l-.071-.036q-.016-.004-.024.006l-.004.01l-.017.428l.005.02l.01.013l.104.074l.015.004l.012-.004l.104-.074l.012-.016l.004-.017l-.017-.427q-.004-.016-.016-.018m.264-.113l-.014.002l-.184.093l-.01.01l-.003.011l.018.43l.005.012l.008.008l.201.092q.019.005.029-.008l.004-.014l-.034-.614q-.005-.018-.02-.022m-.715.002a.02.02 0 0 0-.027.006l-.006.014l-.034.614q.001.018.017.024l.015-.002l.201-.093l.01-.008l.003-.011l.018-.43l-.003-.012l-.01-.01z"/><path fill="currentColor" d="M14.902 19.512C13.831 20.583 12 19.825 12 18.31V16H4a2 2 0 0 1-2-2v-4a2 2 0 0 1 2-2h8V5.69c0-1.515 1.831-2.273 2.902-1.202l6.453 6.451a1.5 1.5 0 0 1 0 2.121z"/>
    </g>
  </symbol>
  <!-- History Icon -->
  <symbol id="history" viewBox="0 0 24 24">
    <path fill="currentColor" d="M12 5a7 7 0 1 1-6.946 6.124a1 1 0 1 0-1.984-.248Q3 11.43 3 12a9 9 0 1 0 4-7.484V4a1 1 0 0 0-2 0v3a1 1 0 0 0 1 1h3a1 1 0 0 0 0-2h-.608A6.97 6.97 0 0 1 12 5m1 3a1 1 0 1 0-2 0v4a1 1 0 0 0 1 1h2.5a1 1 0 1 0 0-2H13z"/>
  </symbol>
  <!-- person Icon -->
  <symbol id="person" viewBox="0 0 28 28">
    <path fill="currentColor" d="M21 16a3 3 0 0 1 3 3v.715C24 23.292 19.79 26 14 26S4 23.433 4 19.715V19a3 3 0 0 1 3-3zM14 2a6 6 0 1 1 0 12a6 6 0 0 1 0-12"/>
  </symbol>
  <!-- Settings icon -->
  <symbol id="settings" viewBox="0 0 24 24">
    <path fill="currentColor" d="M12.012 2.25c.734.008 1.465.093 2.182.253a.75.75 0 0 1 .582.649l.17 1.527a1.384 1.384 0 0 0 1.927 1.116l1.4-.615a.75.75 0 0 1 .85.174a9.8 9.8 0 0 1 2.205 3.792a.75.75 0 0 1-.272.825l-1.241.916a1.38 1.38 0 0 0 0 2.226l1.243.915a.75.75 0 0 1 .272.826a9.8 9.8 0 0 1-2.204 3.792a.75.75 0 0 1-.849.175l-1.406-.617a1.38 1.38 0 0 0-1.926 1.114l-.17 1.526a.75.75 0 0 1-.571.647a9.5 9.5 0 0 1-4.406 0a.75.75 0 0 1-.572-.647l-.169-1.524a1.382 1.382 0 0 0-1.925-1.11l-1.406.616a.75.75 0 0 1-.85-.175a9.8 9.8 0 0 1-2.203-3.796a.75.75 0 0 1 .272-.826l1.243-.916a1.38 1.38 0 0 0 0-2.226l-1.243-.914a.75.75 0 0 1-.272-.826a9.8 9.8 0 0 1 2.205-3.792a.75.75 0 0 1 .85-.174l1.4.615a1.387 1.387 0 0 0 1.93-1.118l.17-1.526a.75.75 0 0 1 .583-.65q1.074-.238 2.201-.252M12 9a3 3 0 1 0 0 6a3 3 0 0 0 0-6"/>
  </symbol>
  <!-- Left Icon -->
  <symbol id="left" viewBox="0 0 24 24">
    <g fill="none">
      <path d="M24 0v24H0V0zM12.593 23.258l-.011.002l-.071.035l-.02.004l-.014-.004l-.071-.035q-.016-.005-.024.005l-.004.01l-.017.428l.005.02l.01.013l.104.074l.015.004l.012-.004l.104-.074l.012-.016l.004-.017l-.017-.427q-.004-.016-.017-.018m.265-.113l-.013.002l-.185.093l-.01.01l-.003.011l.018.43l.005.012l.008.007l.201.093q.019.005.029-.008l.004-.014l-.034-.614q-.005-.019-.02-.022m-.715.002a.02.02 0 0 0-.027.006l-.006.014l-.034.614q.001.018.017.024l.015-.002l.201-.093l.01-.008l.004-.011l.017-.43l-.003-.012l-.01-.01z"/><path fill="currentColor" d="M3.283 10.94a1.5 1.5 0 0 0 0 2.12l5.656 5.658a1.5 1.5 0 1 0 2.122-2.122L7.965 13.5H19.5a1.5 1.5 0 0 0 0-3H7.965l3.096-3.096a1.5 1.5 0 1 0-2.122-2.121z"/>
    </g>
  </symbol>
  <!-- Right Icon -->
  <symbol id="right" viewBox="0 0 24 24">
    <g fill="none">
      <path d="M24 0v24H0V0zM12.593 23.258l-.011.002l-.071.035l-.02.004l-.014-.004l-.071-.035q-.016-.005-.024.005l-.004.01l-.017.428l.005.02l.01.013l.104.074l.015.004l.012-.004l.104-.074l.012-.016l.004-.017l-.017-.427q-.004-.016-.017-.018m.265-.113l-.013.002l-.185.093l-.01.01l-.003.011l.018.43l.005.012l.008.007l.201.093q.019.005.029-.008l.004-.014l-.034-.614q-.005-.019-.02-.022m-.715.002a.02.02 0 0 0-.027.006l-.006.014l-.034.614q.001.018.017.024l.015-.002l.201-.093l.01-.008l.004-.011l.017-.43l-.003-.012l-.01-.01z"/><path fill="currentColor" d="m15.06 5.283l5.657 5.657a1.5 1.5 0 0 1 0 2.12l-5.656 5.658a1.5 1.5 0 0 1-2.122-2.122l3.096-3.096H4.5a1.5 1.5 0 0 1 0-3h11.535L12.94 7.404a1.5 1.5 0 0 1 2.122-2.121Z"/>
    </g>
  </symbol>
  <symbol id="back" viewBox="0 0 512 512">
      <path d="M377.9 105.9L500.7 228.7c7.2 7.2 11.3 17.1 11.3 27.3s-4.1 20.1-11.3 27.3L377.9 
      406.1c-6.4 6.4-15 9.9-24 9.9c-18.7 0-33.9-15.2-33.9-33.9l0-62.1-128 0c-17.7 0-32-14.3-32-32l0-64c0-17.7 14.3-32 32-32l128 
      0 0-62.1c0-18.7 15.2-33.9 33.9-33.9c9 0 17.6 3.6 24 9.9zM160 96L96 96c-17.7 0-32 14.3-32 32l0 256c0 17.7 14.3 32 32 32l64 
      0c17.7 0 32 14.3 32 32s-14.3 32-32 32l-64 0c-53 0-96-43-96-96L0 128C0 75 43 32 96 32l64 0c17.7 0 32 14.3 32 32s-14.3 32-32 32z"/>
  </symbol>
  <symbol xmlns="http://www.w3.org/2000/svg" viewBox="0 0 448 512">
    <path d="M9.4 233.4c-12.5 12.5-12.5 32.8 0 45.3l160 160c12.5 12.5 32.8 12.5 45.3 0s12.5-32.8 0-45.3L109.2 288 416 288c17.7 
    0 32-14.3 32-32s-14.3-32-32-32l-306.7 0L214.6 118.6c12.5-12.5 12.5-32.8 0-45.3s-32.8-12.5-45.3 0l-160 160z"/>
  </symbol>
  <!-- Instagram Icon -->
  <symbol id="instagram" viewBox="0 0 640 640">
    <path fill="currentColor" d="M320.3 205C256.8 204.8 205.2 256.2 205 319.7C204.8 383.2 256.2 434.8 319.7 435C383.2 435.2 434.8 383.8 435 320.3C435.2 256.8 383.8 205.2 320.3 205zM319.7 245.4C360.9 245.2 394.4 278.5 394.6 319.7C394.8 360.9 361.5 394.4 320.3 394.6C279.1 394.8 245.6 361.5 245.4 320.3C245.2 279.1 278.5 245.6 319.7 245.4zM413.1 200.3C413.1 185.5 425.1 173.5 439.9 173.5C454.7 173.5 466.7 185.5 466.7 200.3C466.7 215.1 454.7 227.1 439.9 227.1C425.1 227.1 413.1 215.1 413.1 200.3zM542.8 227.5C541.1 191.6 532.9 159.8 506.6 133.6C480.4 107.4 448.6 99.2 412.7 97.4C375.7 95.3 264.8 95.3 227.8 97.4C192 99.1 160.2 107.3 133.9 133.5C107.6 159.7 99.5 191.5 97.7 227.4C95.6 264.4 95.6 375.3 97.7 412.3C99.4 448.2 107.6 480 133.9 506.2C160.2 532.4 191.9 540.6 227.8 542.4C264.8 544.5 375.7 544.5 412.7 542.4C448.6 540.7 480.4 532.5 506.6 506.2C532.8 480 541 448.2 542.8 412.3C544.9 375.3 544.9 264.5 542.8 227.5zM495 452C487.2 471.6 472.1 486.7 452.4 494.6C422.9 506.3 352.9 503.6 320.3 503.6C287.7 503.6 217.6 506.2 188.2 494.6C168.6 486.8 153.5 471.7 145.6 452C133.9 422.5 136.6 352.5 136.6 319.9C136.6 287.3 134 217.2 145.6 187.8C153.4 168.2 168.5 153.1 188.2 145.2C217.7 133.5 287.7 136.2 320.3 136.2C352.9 136.2 423 133.6 452.4 145.2C472 153 487.1 168.1 495 187.8C506.7 217.3 504 287.3 504 319.9C504 352.5 506.7 422.6 495 452z"/>
  </symbol>
  <!-- X (Twitter) Icon -->
  <symbol id="x" viewBox="0 0 640 640">
    <path fill="currentColor" d="M453.2 112L523.8 112L369.6 288.2L551 528L409 528L297.7 382.6L170.5 528L99.8 528L264.7 339.5L90.8 112L236.4 112L336.9 244.9L453.2 112zM428.4 485.8L467.5 485.8L215.1 152L173.1 152L428.4 485.8z"/>
  </symbol>
  <!-- TikTok Icon -->
  <symbol id="tiktok" viewBox="0 0 640 640">
    <path fill="currentColor" d="M544.5 273.9C500.5 274 457.5 260.3 421.7 234.7L421.7 413.4C421.7 446.5 411.6 478.8 392.7 506C373.8 533.2 347.1 554 316.1 565.6C285.1 577.2 251.3 579.1 219.2 570.9C187.1 562.7 158.3 545 136.5 520.1C114.7 495.2 101.2 464.1 97.5 431.2C93.8 398.3 100.4 365.1 116.1 336C131.8 306.9 156.1 283.3 185.7 268.3C215.3 253.3 248.6 247.8 281.4 252.3L281.4 342.2C266.4 337.5 250.3 337.6 235.4 342.6C220.5 347.6 207.5 357.2 198.4 369.9C189.3 382.6 184.4 398 184.5 413.8C184.6 429.6 189.7 444.8 199 457.5C208.3 470.2 221.4 479.6 236.4 484.4C251.4 489.2 267.5 489.2 282.4 484.3C297.3 479.4 310.4 469.9 319.6 457.2C328.8 444.5 333.8 429.1 333.8 413.4L333.8 64L421.8 64C421.7 71.4 422.4 78.9 423.7 86.2C426.8 102.5 433.1 118.1 442.4 131.9C451.7 145.7 463.7 157.5 477.6 166.5C497.5 179.6 520.8 186.6 544.6 186.6L544.6 274z"/>
  </symbol>
  <!-- Whatsapp Icon -->
  <symbol id="whatsapp" viewBox="0 0 640 640">
    <path fill="currentColor" d="M476.9 161.1C435 119.1 379.2 96 319.9 96C197.5 96 97.9 195.6 97.9 318C97.9 357.1 108.1 395.3 127.5 429L96 544L213.7 513.1C246.1 530.8 282.6 540.1 319.8 540.1L319.9 540.1C442.2 540.1 544 440.5 544 318.1C544 258.8 518.8 203.1 476.9 161.1zM319.9 502.7C286.7 502.7 254.2 493.8 225.9 477L219.2 473L149.4 491.3L168 423.2L163.6 416.2C145.1 386.8 135.4 352.9 135.4 318C135.4 216.3 218.2 133.5 320 133.5C369.3 133.5 415.6 152.7 450.4 187.6C485.2 222.5 506.6 268.8 506.5 318.1C506.5 419.9 421.6 502.7 319.9 502.7zM421.1 364.5C415.6 361.7 388.3 348.3 383.2 346.5C378.1 344.6 374.4 343.7 370.7 349.3C367 354.9 356.4 367.3 353.1 371.1C349.9 374.8 346.6 375.3 341.1 372.5C308.5 356.2 287.1 343.4 265.6 306.5C259.9 296.7 271.3 297.4 281.9 276.2C283.7 272.5 282.8 269.3 281.4 266.5C280 263.7 268.9 236.4 264.3 225.3C259.8 214.5 255.2 216 251.8 215.8C248.6 215.6 244.9 215.6 241.2 215.6C237.5 215.6 231.5 217 226.4 222.5C221.3 228.1 207 241.5 207 268.8C207 296.1 226.9 322.5 229.6 326.2C232.4 329.9 268.7 385.9 324.4 410C359.6 425.2 373.4 426.5 391 423.9C401.7 422.3 423.8 410.5 428.4 397.5C433 384.5 433 373.4 431.6 371.1C430.3 368.6 426.6 367.2 421.1 364.5z"/>
  </symbol>
  <!-- Phone Icon -->
  <symbol id="phone" viewBox="0 0 640 640">
    <path fill="currentColor" d="M224.2 89C216.3 70.1 195.7 60.1 176.1 65.4L170.6 66.9C106 84.5 50.8 147.1 66.9 223.3C104 398.3 241.7 536 416.7 573.1C493 589.3 555.5 534 573.1 469.4L574.6 463.9C580 444.2 569.9 423.6 551.1 415.8L453.8 375.3C437.3 368.4 418.2 373.2 406.8 387.1L368.2 434.3C297.9 399.4 241.3 341 208.8 269.3L253 233.3C266.9 222 271.6 202.9 264.8 186.3L224.2 89z"/>
  </symbol>
  <!-- Gmail Icon -->
  <symbol id="gmail" viewBox="0 0 640 640">
    <path fill="currentColor" d="M112 128C85.5 128 64 149.5 64 176C64 191.1 71.1 205.3 83.2 214.4L291.2 370.4C308.3 383.2 331.7 383.2 348.8 370.4L556.8 214.4C568.9 205.3 576 191.1 576 176C576 149.5 554.5 128 528 128L112 128zM64 260L64 448C64 483.3 92.7 512 128 512L512 512C547.3 512 576 483.3 576 448L576 260L377.6 408.8C343.5 434.4 296.5 434.4 262.4 408.8L64 260z"/>
  </symbol>
  <!-- Facebook Icon -->
  <symbol id="facebook" viewBox="0 0 640 640">
    <path fill="currentColor" d="M576 320C576 178.6 461.4 64 320 64C178.6 64 64 178.6 64 320C64 440 146.7 540.8 258.2 568.5L258.2 398.2L205.4 398.2L205.4 320L258.2 320L258.2 286.3C258.2 199.2 297.6 158.8 383.2 158.8C399.4 158.8 427.4 162 438.9 165.2L438.9 236C432.9 235.4 422.4 235 409.3 235C367.3 235 351.1 250.9 351.1 292.2L351.1 320L434.7 320L420.3 398.2L351 398.2L351 574.1C477.8 558.8 576 450.9 576 320z"/>
  </symbol>
  <!-- YouTube Icon -->
  <symbol id="youtube" viewBox="0 0 640 640">
    <path fill="currentColor" d="M581.7 188.1C575.5 164.4 556.9 145.8 533.4 139.5C490.9 128 320.1 128 320.1 128C320.1 128 149.3 128 106.7 139.5C83.2 145.8 64.7 164.4 58.4 188.1C47 231 47 320.4 47 320.4C47 320.4 47 409.8 58.4 452.7C64.7 476.3 83.2 494.2 106.7 500.5C149.3 512 320.1 512 320.1 512C320.1 512 490.9 512 533.5 500.5C557 494.2 575.5 476.3 581.8 452.7C593.2 409.8 593.2 320.4 593.2 320.4C593.2 320.4 593.2 231 581.8 188.1zM264.2 401.6L264.2 239.2L406.9 320.4L264.2 401.6z"/>
  </symbol>
  <!-- LinkedIn Icon -->
  <symbol id="linkedin" viewBox="0 0 256 256">
    <path fill="" d="M218.123 218.127h-37.931v-59.403c0-14.165-.253-32.4-19.728-32.4-19.756 0-22.779 15.434-22.779 31.369v60.43h-37.93V95.967h36.413v16.694h.51a39.907 39.907 0 0 1 35.928-19.733c38.445 0 45.533 25.288 45.533 58.186l-.016 67.013ZM56.955 79.27c-12.157.002-22.014-9.852-22.016-22.009-.002-12.157 9.851-22.014 22.008-22.016 12.157-.003 22.014 9.851 22.016 22.008A22.013 22.013 0 0 1 56.955 79.27m18.966 138.858H37.95V95.967h37.97v122.16ZM237.033.018H18.89C8.58-.098.125 8.161-.001 18.471v219.053c.122 10.315 8.576 18.582 18.89 18.474h218.144c10.336.128 18.823-8.139 18.966-18.474V18.454c-.147-10.33-8.635-18.588-18.966-18.453" fill="#0A66C2"/>
  </symbol>
  <!-- GitHub Icon -->
  <symbol id="github" viewBox="0 0 1024 1024">
    <path fill-rule="evenodd" clip-rule="evenodd" d="M8 0C3.58 0 0 3.58 0 8C0 11.54 2.29 14.53 5.47 15.59C5.87 15.66 6.02 15.42 6.02 15.21C6.02 15.02 6.01 14.39 6.01 13.72C4 14.09 3.48 13.23 3.32 12.78C3.23 12.55 2.84 11.84 2.5 11.65C2.22 11.5 1.82 11.13 2.49 11.12C3.12 11.11 3.57 11.7 3.72 11.94C4.44 13.15 5.59 12.81 6.05 12.6C6.12 12.08 6.33 11.73 6.56 11.53C4.78 11.33 2.92 10.64 2.92 7.58C2.92 6.71 3.23 5.99 3.74 5.43C3.66 5.23 3.38 4.41 3.82 3.31C3.82 3.31 4.49 3.1 6.02 4.13C6.66 3.95 7.34 3.86 8.02 3.86C8.7 3.86 9.38 3.95 10.02 4.13C11.55 3.09 12.22 3.31 12.22 3.31C12.66 4.41 12.38 5.23 12.3 5.43C12.81 5.99 13.12 6.7 13.12 7.58C13.12 10.65 11.25 11.33 9.47 11.53C9.76 11.78 10.01 12.26 10.01 13.01C10.01 14.08 10 14.94 10 15.21C10 15.42 10.15 15.67 10.55 15.59C13.71 14.53 16 11.53 16 8C16 3.58 12.42 0 8 0Z" transform="scale(64)" fill="#fff"/>
  </symbol>
  <!-- Verified Icon -->
  <symbol id="verified" viewBox="0 0 20 20">
    <path fill-rule="evenodd" d="M10 18a8 8 0 100-16 8 8 0 000 16zm3.707-8.707a1 1 0 00-1.414-1.414L9 11.172l-1.293-1.293a1 1 0 00-1.414 1.414l2 2a1 1 0 001.414 0l4-4z" clip-rule="evenodd" />
  </symbol>
</svg>